<svg enable-background="new 0 0 512 512" version="1.1" viewBox="0 0 512 512" xml:space="preserve" xmlns="http://www.w3.org/2000/svg">
	<polygon points="196.18 168.58 196.18 156.54 40.558 156.54 40.558 183.58 0 183.58 0 295.78 40.558 295.78 40.558 322.82 74.438 322.82 74.438 322.82 168.93 322.82 168.93 322.82 196.18 322.82 196.18 310.77 196.18 310.77 196.18 168.58"/>
	<polygon points="175.55 353.24 81.062 353.24 104.86 462.52 199.34 462.52"/>
	<path d="m262.03 147.46c-12.979 4.952-24.89 9.033-35.425 12.373v159.68c10.534 3.339 22.446 7.421 35.425 12.372 44.271 16.89 110.03 47.504 174.45 97.988v-380.4c-64.423 50.485-130.18 81.098-174.45 97.987z"/>
	<path d="m474.96 168.7h-8.063v141.95h8.063c20.426 0 37.045-16.618 37.045-37.045v-67.858c0-20.426-16.619-37.044-37.045-37.044z"/>
</svg>
