<svg enable-background="new 0 0 477.08 477.08" version="1.1" viewBox="0 0 477.08 477.08" xml:space="preserve" xmlns="http://www.w3.org/2000/svg">
	<path d="m477.06 203.08c0-10.801-8.759-19.56-19.56-19.56h-40.182c-3.487-11.337-8.061-22.175-13.526-32.48l28.465-28.465c3.673-3.673 5.731-8.65 5.731-13.837s-2.066-10.164-5.731-13.837l-50.128-50.106c-7.641-7.64-20.026-7.64-27.667 0l-28.465 28.465c-10.303-5.459-21.143-10.024-32.472-13.511v-40.174c0-10.809-8.759-19.567-19.568-19.567h-70.86c-10.801 0-19.56 8.759-19.56 19.567v40.175c-11.337 3.486-22.184 8.06-32.488 13.518l-28.457-28.458c-7.633-7.64-20.025-7.64-27.666-8e-3l-50.112 50.114c-7.633 7.633-7.633 20.041 0 27.673l28.458 28.458c-5.466 10.297-10.04 21.143-13.526 32.472h-40.19c-10.801 1e-3 -19.56 8.76-19.56 19.568v70.876c0 10.801 8.759 19.56 19.559 19.56h40.182c3.479 11.337 8.052 22.184 13.518 32.478l-28.457 28.459c-7.64 7.641-7.64 20.034 0 27.673l50.114 50.114c7.64 7.641 20.033 7.641 27.674 0l28.443-28.443c10.311 5.475 21.166 10.049 32.51 13.534v40.167c0 10.809 8.759 19.566 19.56 19.566h70.86c10.809 0 19.568-8.757 19.568-19.566v-40.167c11.345-3.486 22.199-8.059 32.51-13.534l28.451 28.451c3.673 3.672 8.649 5.729 13.836 5.729s10.165-2.058 13.836-5.729l50.106-50.106c7.633-7.641 7.633-20.034 0-27.665l-28.465-28.466c5.474-10.303 10.047-21.158 13.526-32.494h40.182c5.187 0 10.165-2.058 13.836-5.731 3.665-3.672 5.731-8.649 5.731-13.836l-0.016-70.877zm-238.53 159.6c-68.446 0-124.13-55.689-124.13-124.14 0-68.446 55.688-124.13 124.13-124.13 68.454 0 124.14 55.688 124.14 124.13 0 68.454-55.689 124.14-124.14 124.14z"/>
	<path d="m238.53 146.21c-50.912 0-92.329 41.417-92.329 92.329 0 50.914 41.417 92.339 92.329 92.339 50.914 0 92.339-41.425 92.339-92.339 0-50.912-41.425-92.329-92.339-92.329z"/>
</svg>
