<svg width="512pt" height="512pt" viewBox="0 0 512 512" xmlns="http://www.w3.org/2000/svg">
	<path d="m95.332 176.73h-16.066-0.007813-0.007812c-43.68 0-79.25 35.539-79.25 79.25v80.348c0 43.707 35.559 79.27 79.266 79.27h16.066c25.914 0 47.133-20.953 47.133-47.133v-144.6c0-26.305-21.352-47.133-47.133-47.133z"/>
	<path d="m432.75 176.73h-0.007812-0.007813-16.066c-25.781 0-47.137 20.828-47.137 47.133v144.6c0 26.18 21.223 47.133 47.137 47.133h16.066c43.707 0 79.266-35.562 79.266-79.27v-80.348c0-43.711-35.57-79.25-79.25-79.25z"/>
	<path d="m416.67 445.6h-5.6953c-10.691 21.543-32.926 36.398-58.574 36.398h-4.3008c2.082-5.3086 3.2422-11.09 3.2422-17.129 0-25.992-21.152-47.141-47.141-47.141s-47.129 21.148-47.129 47.141c0 25.988 21.141 47.129 47.129 47.129h48.199c42.484 0 78.559-27.934 90.844-66.398z"/>
	<path d="m411.34 146.73h5.1289c0.066406 0 0.12891-0.003906 0.19531-0.003906h16.062c0.050781 0 0.097656 0.003906 0.14844 0.003906h9.5c-20.297-84.082-96.148-146.73-186.38-146.73-90.223 0-166.09 62.652-186.38 146.73h9.4805c0.050782 0 0.10156-0.003906 0.14844-0.003906h16.082c0.066406 0 0.12891 0.003906 0.19531 0.003906h5.1289c19.535-67.355 81.773-116.73 155.35-116.73 73.57 0 135.81 49.379 155.34 116.73z"/>
</svg>
