<svg width="448pt" height="448pt" viewBox="-1 0 448 448" xmlns="http://www.w3.org/2000/svg">
	<path d="m14.633 208v160h112c4.418 0 8 3.582 8 8h32c0-4.418 3.582-8 8-8h112v-160c0-4.418-3.582-8-8-8h-256c-4.418 0-8 3.582-8 8z"/>
	<path d="m174.63 392h-48c-4.418 0-8-3.582-8-8h-118.63c3.4023 9.582 12.465 15.988 22.633 16h256c10.18 0.027344 19.262-6.3945 22.633-16h-118.63c0 4.418-3.582 8-8 8z"/>
	<path d="m446.63 200v-192c0-4.418-3.582-8-8-8h-288c-4.418 0-8 3.582-8 8v176h136c13.254 0 24 10.746 24 24h136c4.418 0 8-3.582 8-8z"/>
	<path d="m358.63 304h64c4.418 0 8 3.582 8 8v128c0 4.418-3.582 8-8 8h-64c-4.418 0-8-3.582-8-8v-128c0-4.418 3.582-8 8-8z"/>
	<path d="m390.63 264h-58.609l-11.422-40h-17.969v56h88c4.418 0 8-3.582 8-8s-3.582-8-8-8z"/>
</svg>
