<svg width="512pt" height="512pt" viewBox="0 0 512 512" xmlns="http://www.w3.org/2000/svg">
	<path d="m114.22 0.11719-114.22 114.22 82.434 82.434 38.281-38.285 21.207 21.207-38.281 38.281 21.078 21.082 114.22-114.22zm8.2227 122.43c-3.2734 3.2734-7.625 5.0781-12.25 5.0781s-8.9727-1.8008-12.246-5.0703c-6.7539-6.7578-6.7539-17.746 0-24.496 3.2734-3.2734 7.6211-5.0742 12.246-5.0742s8.9766 1.8008 12.246 5.0703c6.7539 6.7539 6.7539 17.738 0.003906 24.492z"/>
	<path d="m272.83 387.17 21.273 21.273 38.379-38.379 21.207 21.207-38.379 38.379 21.074 21.074 38.379-38.379 21.207 21.207-38.379 38.379 40.07 40.07 114.22-114.22-124.83-124.83z"/>
	<path d="m511.95 0-160.73 62.344 98.391 98.387z"/>
	<path d="m38.031 368.15-24.281 24.277c-8.7578 8.7617-13.586 20.41-13.586 32.801 0 12.391 4.8281 24.035 13.586 32.801l40.168 40.168c8.7617 8.7617 20.41 13.586 32.801 13.586s24.039-4.8242 32.801-13.586l24.277-24.277z"/>
	<path d="m368.6 122.14-42.281-42.285-267.09 267.09 42.285 42.281z"/>
	<path d="m380.69 237.02 51.398-51.398-42.281-42.281-267.09 267.09 42.281 42.281z"/>
</svg>
