<svg xmlns="http://www.w3.org/2000/svg" width="137.844" height="39.031" viewBox="0 0 137.844 39.031">
  <defs>
    <style>
      .cls-1 {
	    fill: #fff;
        fill-rule: evenodd;
      }
    </style>
  </defs>
  <path id="Plain." class="cls-1" d="M117.72,73H102.36v33.6h9.5V97.814h5.856a19.164,19.164,0,0,0,7.92-1.512,11.862,11.862,0,0,0,0-21.792A19.164,19.164,0,0,0,117.72,73h0Zm-0.576,17.328h-5.28v-9.84h5.28a6.555,6.555,0,0,1,4.416,1.3,4.58,4.58,0,0,1,1.488,3.648,4.505,4.505,0,0,1-1.488,3.624,6.639,6.639,0,0,1-4.416,1.272h0ZM137.3,106.6h9.12V70.982H137.3V106.6ZM163.415,80.15a24.991,24.991,0,0,0-6.216.792,17.015,17.015,0,0,0-5.256,2.232l3.072,6.192a10.124,10.124,0,0,1,3.264-1.656,12.67,12.67,0,0,1,3.792-.6q5.28,0,5.52,4.128h-5.184q-5.9,0-8.736,2.04a6.661,6.661,0,0,0-2.832,5.736,7.566,7.566,0,0,0,1.128,4.1,7.755,7.755,0,0,0,3.336,2.856,12.033,12.033,0,0,0,5.232,1.056q5.712,0,7.68-3.792v3.36h8.5V92.15q0-6.1-3.408-9.048t-9.888-2.952h0Zm-0.336,21.12a3.926,3.926,0,0,1-2.5-.72,2.323,2.323,0,0,1-.912-1.92q0-2.639,3.984-2.64h3.936v2.256a4.275,4.275,0,0,1-1.728,2.256,5.051,5.051,0,0,1-2.784.768h0Zm19.392,5.328h9.12V80.582h-9.12V106.6Zm4.56-28.9a5.716,5.716,0,0,0,4.032-1.416A4.654,4.654,0,0,0,192.6,72.71a4.262,4.262,0,0,0-1.536-3.384,5.974,5.974,0,0,0-4.032-1.32A5.774,5.774,0,0,0,183,69.4a4.656,4.656,0,0,0,0,6.912,5.771,5.771,0,0,0,4.032,1.392h0Zm27.407,2.448a12.368,12.368,0,0,0-4.608.84,10.34,10.34,0,0,0-3.648,2.424V80.582h-8.688V106.6h9.12V94.022a6.594,6.594,0,0,1,1.416-4.608,4.88,4.88,0,0,1,3.768-1.536q4.272,0,4.272,5.328V106.6h9.12V91.718q0-5.807-2.952-8.688a10.692,10.692,0,0,0-7.8-2.88h0Zm20.3,26.88a5.35,5.35,0,0,0,3.912-1.536,5.226,5.226,0,0,0,1.56-3.888,5.171,5.171,0,0,0-1.536-3.888,5.918,5.918,0,0,0-7.848,0,5.129,5.129,0,0,0-1.56,3.888,5.186,5.186,0,0,0,1.584,3.888,5.372,5.372,0,0,0,3.888,1.536h0Z" transform="translate(-102.375 -68)"/>
</svg>
