<svg xmlns="http://www.w3.org/2000/svg" width="103.375" height="29.25" viewBox="0 0 103.375 29.25">
  <defs>
    <style>
      .cls-1 {
        fill: #666;
        fill-rule: evenodd;
      }
    </style>
  </defs>
  <path id="Plain." class="cls-1" d="M113.04,7617.51H101.52v25.2h7.128v-6.59h4.392a14.31,14.31,0,0,0,5.94-1.13,8.888,8.888,0,0,0,3.888-3.22,8.906,8.906,0,0,0-3.888-13.12,14.307,14.307,0,0,0-5.94-1.14h0Zm-0.432,13h-3.96v-7.38h3.96a4.905,4.905,0,0,1,3.312.97,3.44,3.44,0,0,1,1.116,2.74,3.363,3.363,0,0,1-1.116,2.71,4.958,4.958,0,0,1-3.312.96h0Zm15.12,12.2h6.84V7616h-6.84v26.71Zm19.584-19.83a18.547,18.547,0,0,0-4.662.59,12.856,12.856,0,0,0-3.942,1.67l2.3,4.65a7.516,7.516,0,0,1,2.448-1.24,9.493,9.493,0,0,1,2.844-.45q3.959,0,4.14,3.09h-3.888q-4.428,0-6.552,1.53a5,5,0,0,0-2.124,4.3,5.654,5.654,0,0,0,.846,3.08,5.749,5.749,0,0,0,2.5,2.14,8.981,8.981,0,0,0,3.924.8q4.283,0,5.76-2.85v2.52h6.372v-10.83q0-4.575-2.556-6.79c-1.705-1.48-4.176-2.21-7.416-2.21h0Zm-0.252,15.84a2.942,2.942,0,0,1-1.872-.54,1.739,1.739,0,0,1-.684-1.44q0-1.98,2.988-1.98h2.952v1.69a3.211,3.211,0,0,1-1.3,1.69,3.827,3.827,0,0,1-2.088.58h0Zm14.543,3.99h6.84V7623.2H161.6v19.51Zm3.42-21.67a4.275,4.275,0,0,0,3.024-1.06,3.49,3.49,0,0,0,1.152-2.68,3.188,3.188,0,0,0-1.152-2.54,4.477,4.477,0,0,0-3.024-.99,4.356,4.356,0,0,0-3.024,1.04,3.5,3.5,0,0,0,0,5.19,4.356,4.356,0,0,0,3.024,1.04h0Zm20.556,1.84a9.269,9.269,0,0,0-3.456.63,7.752,7.752,0,0,0-2.736,1.81v-2.12h-6.516v19.51h6.84v-9.43a4.952,4.952,0,0,1,1.062-3.46,3.684,3.684,0,0,1,2.826-1.15q3.2,0,3.2,4v10.04h6.84v-11.16q0-4.35-2.214-6.51a8.019,8.019,0,0,0-5.85-2.16h0Zm15.228,20.16a4.012,4.012,0,0,0,2.934-1.16,4.24,4.24,0,0,0,.018-5.83,4.456,4.456,0,0,0-5.886,0,4.193,4.193,0,0,0,.018,5.83,4.027,4.027,0,0,0,2.916,1.16h0Z" transform="translate(-101.531 -7613.78)"/>
</svg>
